<svg xmlns="http://www.w3.org/2000/svg" width="240.445" height="261.234" viewBox="0 0 240.445 261.234"><defs><style>.a{fill:#784931;}.a,.b,.c,.d,.e,.f,.g{fill-rule:evenodd;}.b{fill:#191847;}.c{fill:#2f3676;}.d{fill:#b28b67;}.e{fill:#c5cfd6;}.f{fill:#323337;}.g{fill:#dde3e9;}.h{fill:#e5e5e5;}.i{fill:#d5d5d5;}.j{fill:#bfbebf;}.k{fill:#ffcba4;}.l{fill:#292929;}.m{fill:#f7ba93;}.n{fill:#7093b9;}.o{fill:#a4bad2;}.p{fill:#5c84af;}.q{fill:#4a76a6;}.r{fill:#86a9cf;}.s{fill:#7ea3cc;}.t{fill:#f4f4f4;}.u{fill:#f5a674;}.v{fill:#49352c;}.w{fill:#5e453b;}.x{fill:#493528;}.y{fill:#ffe2cc;}.z{fill:#492d22;}.aa{fill:#fff;}.ab{fill:#ee2759;}.ac{fill:#b9b9b9;}.ad{fill:#efefef;}.ae{fill:#464646;}.af{fill:#f1f1f1;}.ag{fill:#0e0e0e;}.ah{fill:#a37980;}.ai{fill:#f0c2c8;}.aj{fill:#876355;}.ak{fill:#ffdbbf;}.al{fill:#705246;}.am{fill:#694c39;}.an{fill:#a67a68;}</style></defs><g transform="translate(-92.207 -380)"><g transform="translate(45.785 368.205)"><g transform="translate(40.065 17.514)"><g transform="matrix(0.966, -0.259, 0.259, 0.966, 33.665, 6.953)"><g transform="translate(7.07 12.612)"><path class="a" d="M3.894,16.111A12.589,12.589,0,0,1,.5,7.019c.708-10,14.747-7.8,17.478-2.752s2.407,17.843-1.123,18.745c-1.408.36-4.406-.521-7.458-2.345L11.311,34.1H0Z" transform="translate(0 0)"/></g><path class="b" d="M20.579,11.384a14.886,14.886,0,0,0-4.733-.518,8,8,0,0,0,.576-4.079A12.358,12.358,0,0,0,15.087,3.1,5.039,5.039,0,0,0,14.1,1.574,3.382,3.382,0,0,0,12.5.724a4.312,4.312,0,0,0-1.84,0c-.268.056-.508.177-.77.244S9.493.869,9.3.7A3.382,3.382,0,0,0,7.544.027a4.56,4.56,0,0,0-2,.237A3.91,3.91,0,0,0,3.886,1.32a2.76,2.76,0,0,0-.5.757c-.048.115-.056.183-.172.225s-.232.04-.343.077A4.3,4.3,0,0,0,.4,4.606a7,7,0,0,0-.39,2.9,12.543,12.543,0,0,0,2.169,5.514,6.935,6.935,0,0,0,3.575,2,10.109,10.109,0,0,0-1.868,3.453,16.764,16.764,0,0,0-.855,4.194A13.569,13.569,0,0,0,3.239,26.8a4.481,4.481,0,0,0,2.021,2.917,9.7,9.7,0,0,0,1.556.724,10.312,10.312,0,0,0,1.6.509,3.238,3.238,0,0,0,3.045-.645,5.672,5.672,0,0,0,.818-1.031c.076-.13.122-.215.029-.343a2.463,2.463,0,0,0-.431-.388,4.015,4.015,0,0,1-1.436-2.665c-.128-1.094.168-2.506,1.242-2.984,1.325-.589,2.784.087,3.961.718a6.427,6.427,0,0,1,3.139-4.13c1.782-.888,3.828-.992,5.659-1.755a3.381,3.381,0,0,0,1.315-.829,1.687,1.687,0,0,0,.378-.612.985.985,0,0,0-.262-.769A14.424,14.424,0,0,0,20.579,11.384Z" transform="translate(0 0)"/></g><g transform="translate(28.683 88.287)"><path class="b" d="M138.653,0l17.086,59.729,12.466,44.023H177.3L164.051,0Z" transform="translate(-112.261 0)"/><path class="c" d="M100.908,0c-.4,30.785-1.743,47.576-2.158,50.373s-6.689,20.59-18.823,53.379h9.419q23.171-47.184,25.869-53.379c1.8-4.131,7.35-20.922,15.712-50.373Z" transform="translate(-79.085)"/><g transform="translate(0 102.379)"><path class="b" d="M0,30.478l.471-9.9h9.9q7.039,4.948,18.38,8.012v1.885H10.84l-6.127-.943v.943Z" transform="translate(0 -20.581)"/></g><g transform="translate(54.669 102.379)"><path class="b" d="M0,30.478l.471-9.9h9.9q7.039,4.948,18.38,8.012v1.885H10.84l-6.127-.943v.943Z" transform="translate(0 -20.581)"/></g></g><g transform="translate(0 49.887) rotate(-10)"><path class="d" d="M87.563,5.193l14.227,12a40.55,40.55,0,0,1,9.908,4.785c.6.63,1.3,1.867-1.36,1.477s-5.473-.682-5.906.2,1.109,2.08.277,3.252q-.831,1.173-6.614-6.63l-14.42-7.161ZM23.142,0l8.347,1.206Q18.049,30.223,17.078,31.9c-1.456,2.512.256,6.888.926,9.2-3.383.972-2.3-4.229-6.58-2.932C7.519,39.354,4.3,42.039.43,38.846c-.475-.392-.876-1.675.635-2.423C4.83,34.56,10.358,31.152,11.217,29.9Q12.974,27.326,23.142,0Z" transform="translate(0 36.605)"/><path class="e" d="M0,2.146,5,0c8.51,16.763,20.4,32.662,39.063,45.338l-3.66,7.77C24.316,45.475,9.217,39.773,2.159,26.824-.21,22.478.312,7.563,0,2.146Z" transform="translate(58.217 0.606) rotate(5)"/><path class="f" d="M0,50.788q22.225,2.345,34.987,0c1.054-.194,1.22-1.95.731-3.142C28.106,29.086,22.886,12.891,22.886,0q-2.1,1.051-7.333.315C6.167,13.6,1.853,28.843,0,50.788Z" transform="translate(40.265 1.042)"/><path class="g" d="M42.066.243h3.911c.911,5.33,3.783,77.5,12.65,101.112H10.648c1.04-21.628,9.246-47.609,17.558-69.35Q17.18,42.045,8.987,66.026L0,63.731Q10.023,20.752,41.216.552L41.35.243H41.7L42.08,0Z" transform="translate(11.419 0)"/></g></g></g><g transform="translate(107.086 380.015)"><g transform="translate(60.262 -0.015)"><path class="h" d="M192.716,106.29l16.63,43.233s-5.527,19.172-12.491,27.07a178.736,178.736,0,0,1-17.195-17.858Z" transform="translate(-129.592 -39.338)"/><path class="i" d="M196.163,109l3.8,36.324-8.849,2.757-2.849-14.923Z" transform="translate(-132.911 -42.054)"/><path class="j" d="M201.246,177.122c-5.668,1.382-6.847,6.9-6.055,11.293a20.179,20.179,0,0,0,7.689,12.6c.467.356.952.694,1.455,1.019q.325-.368.614-.755a23.68,23.68,0,0,0,4.913-14.917C209.8,182.17,207.645,175.556,201.246,177.122Z" transform="translate(-135.5 -66.581)"/><rect class="j" width="44.209" height="43.767" transform="translate(13.881 137.133) rotate(-5.6)"/><path class="k" d="M137.938,87.718,126.27,95.757l.792,10.3,28.218-1.4,1.99-11.662L144.853,87Z" transform="translate(-108.989 -33.564)"/><path class="l" d="M144.439,382.44s1.578,8.217,1.578,8.542-2.137,3.249-7.566,3.574c0,0-9.936,4.735-12.626,5.2s-8.634.51-9.144-.233-2.364-3.015-.614-5.152.786-1.67,3.39-2.88,9.635-4.4,10.735-8.769S144.439,382.44,144.439,382.44Z" transform="translate(-104.768 -145.234)"/><path class="l" d="M205.476,390.579s-1.161,6.546-.743,7.983a2.991,2.991,0,0,0,1.529,1.9s-.786,4.784-.368,6.313a3.721,3.721,0,0,0,1.9,2.321c.418.276,13.651.049,14.2-.375s1.578-3.85,1.351-5.2-3.654-12.626-4.194-13.645a6.97,6.97,0,0,1-.682-2.045S207.22,388.442,205.476,390.579Z" transform="translate(-139.233 -147.987)"/><path class="k" d="M100.66,239.3s-2.53,8.6-2.53,10.182,4.458,8.106,5.945,8.972,4.207,2,4.827,1.155.172-3.384.921-4.913a8.608,8.608,0,0,0-.424-6.626c-1.038-1.67-.246-5.048.092-6.479a8.315,8.315,0,0,0-4.415-2.8C102.152,238.026,100.66,239.3,100.66,239.3Z" transform="translate(-98.13 -90.374)"/><path class="m" d="M113.6,257.761a15.182,15.182,0,0,0-1.228-2.051c-1.486-2.039-5.337-4.673-6.626-3.685,0,0,.264,1.228.614,2.327h0a16.865,16.865,0,0,0,.995,3.685,36.7,36.7,0,0,0,3.777,4.022c.952.952,1.056,1.449,1.069,1.535.092-.829.1-1.891.3-2.831a3.925,3.925,0,0,1,.295-.964A17.8,17.8,0,0,0,113.6,257.761Z" transform="translate(-101.071 -95.494)"/><path class="n" d="M124,224.493s6.933,43.859,7.922,48.809,1.732,36.766,1.609,37.632a19.683,19.683,0,0,0,0,8.665s10.759,1.228,14.738,0c0,0-.375-7.056-.614-7.676s1.523-25.252,1.523-30.822-3.341-14.358-3.341-17.7.491-34.04.491-40.23S124.516,212.322,124,224.493Z" transform="translate(-108.113 -82.019)"/><path class="o" d="M136.762,304.584a136.745,136.745,0,0,0-1.9-14.738c-.927-4.157-4.3-19.479-4.3-19.485,1.726,10.735,3.451,21.315,3.906,23.6.989,4.956,1.732,36.766,1.609,37.632a19.609,19.609,0,0,0,0,8.6l.676.16h0s0-4.851.233-6.141a2.923,2.923,0,0,1,1.069-1.9c.135-.141-.424-7.658-.651-9.285S137.131,308.668,136.762,304.584Z" transform="translate(-110.645 -102.652)"/><path class="n" d="M155.641,222.27h23.747s6.19,47.538,7.8,53.359,7.179,38,8.413,40.6a16.108,16.108,0,0,1,3.47,8.29s-13.615,2.727-14.358,2.456-.995-6.067-.995-6.067l.614-2.106S171.9,276,171.19,273.523,152.65,222.9,152.65,222.9Z" transform="translate(-119.169 -84.094)"/><path class="p" d="M179.828,302.53c0-.037-3.992-19.578-4.428-20.566a1.327,1.327,0,0,1,.559-1.609,5.741,5.741,0,0,1-1.228-1.228c-.743-.921-8.911-24.945-10.956-30.208s-7.185-15.039-7.185-15.039h0c4.913,13.228,15.58,42.226,16.132,44.129C173.072,279.274,176.542,291.225,179.828,302.53Z" transform="translate(-120.69 -88.574)"/><path class="q" d="M176.258,275.047c-1.609-5.822-7.8-53.359-7.8-53.359H144.706a9.7,9.7,0,0,0-1.339-.927c-10,2.849-19.037,5.693-19.037,5.693s23.459.995,26.984.995,15.039,1.67,15.039,1.67,6.006,32.179,6.534,34.592,3.07,17.987,5.435,21C177.45,280.273,176.7,276.649,176.258,275.047Z" transform="translate(-108.241 -83.511)"/><path class="k" d="M139.75,69.959s2.647,17.809,3.482,18.656,8.868,1.026,9.052-2.831S151.264,69.4,151.264,69.4Z" transform="translate(-114.191 -25.102)"/><path class="r" d="M121.255,192.51s38.805.368,48.158-1.842c4.538-19.651-15.125-97.268-15.125-97.268l-15.66,12.515-18.1-6.847Z" transform="translate(-106.774 -34.363)"/><path class="s" d="M141.322,144.387l-7.191-36.625L120.51,102.61l.737,93.442s8.352.1,19.442-.1Z" transform="translate(-106.766 -37.918)"/><path class="h" d="M103.553,113.719s.614,40.66,1.228,44-3.992,33.162-3.992,33.162,8.634,1.67,10.679,2.874c0,0,4.913-30.447,4.452-35.55s-.835-33.886-1.112-35.557S113.576,112.042,103.553,113.719Z" transform="translate(-99.156 -42.124)"/><path class="t" d="M105.393,195.351a42.73,42.73,0,0,0-.614-9.1h0c.2,4.968-4.029,32.676-4.029,32.676s8.634,1.67,10.679,2.874c-3.156-2.506-9.212-3.771-9.212-3.771S105.2,200.552,105.393,195.351Z" transform="translate(-99.141 -70.194)"/><path class="j" d="M117.637,158.189c-.461-5.109-.835-33.886-1.112-35.557s-1.228-10.52-11.14-8.923c-.055.405-.086.657-.086.657s5.9,35.28,12.368,44.829C117.668,158.809,117.662,158.453,117.637,158.189Z" transform="translate(-100.897 -42.127)"/><path class="h" d="M126.4,89.05s-19.989,13.989-21.162,15.23,9.93,24.969,9.93,24.969-.24,37.939-.24,43.325-3.071,41.661-3.071,41.661h19.928s.946-71.709.909-73.631-7.13-37.227-6.141-42.514A20.806,20.806,0,0,0,126.4,89.05Z" transform="translate(-100.838 -32.685)"/><path class="i" d="M121.863,125.092c.172.5.344.983.51,1.455.614,1.775,1.357,3.513,2.106,5.238a26.407,26.407,0,0,0,2.53,5.091c1.228,1.67,3.464,3,5.472,2.321a1.842,1.842,0,0,0,1.419,0,.97.97,0,0,0,.694-.915.983.983,0,0,0-.276-.669.933.933,0,0,0-.921-.246c-.534.209-1.062.381-1.283.94-2.659.731-4.587-2.149-5.625-4.391a82.779,82.779,0,0,1-3.273-7.91l-.436-1.228a.614.614,0,0,0,0-.51c-1.326-3.887-3.562-13.08,3.464-12.816,3.967.154,6.786,3.482,8.155,7.087-.264-1.609-.522-3.212-.768-4.772-2.137-2.733-5.134-4.649-8.6-4.029a7.619,7.619,0,0,0-1.075.282,13.631,13.631,0,0,1-.381-11.183A13.16,13.16,0,0,1,127.1,94.1c1.48-1.228,3.212-1.842,4.839-2.843.252-.154.049-.5-.2-.485a6.694,6.694,0,0,0-1.646.332c-1.228.854-2.9,2.039-4.778,3.365a15.537,15.537,0,0,0-2.72,4.225,14.124,14.124,0,0,0,.454,11.711c-4.8,2.456-3.273,10.053-1.683,14.253A.743.743,0,0,0,121.863,125.092Z" transform="translate(-106.498 -33.348)"/><path class="i" d="M147.288,165.863a1.48,1.48,0,0,1-.436.282,1.357,1.357,0,0,0-1.056-.295.97.97,0,1,0,.258,1.9,1.64,1.64,0,0,0,.9-.614,2.567,2.567,0,0,0,.516-.2C147.387,166.588,147.35,166.238,147.288,165.863Z" transform="translate(-116.147 -62.317)"/><path class="h" d="M162.28,93.693s2.229,34.721,1.762,40.107,6.663,79.09,6.663,79.09,21.193-2.868,25.178-1.566c0,0-14.505-73.078-15.064-75.485s3.156-25.062,3.715-28.4,1.578-7.8,1.578-7.8L165.062,89.05Z" transform="translate(-122.885 -32.685)"/><path class="u" d="M151.536,72c-.111-.749-.19-1.228-.19-1.228l-11.385.553c.123.8.319,2.094.565,3.635a27.967,27.967,0,0,0,5.343,3.285c2.456.995,4.882-1.369,5.908-3.457C151.689,73.755,151.6,72.784,151.536,72Z" transform="translate(-114.272 -25.631)"/><path class="u" d="M170.1,32.259s.233-2.788,1.879-2.456,2.321,2.223,1.744,5.1a5.662,5.662,0,0,1-2.763,3.924Z" transform="translate(-125.903 -9.811)"/><path class="k" d="M150.507,20.008s1.363,8.542.614,14.855-8.3,15.353-9.531,15.967a16.077,16.077,0,0,1-5.693.866c-.989-.123-12.62-7.818-14-12.036s-4.581-15.967-2.843-21.291S131.323,7.726,137.636,9.1,150.016,9.968,150.507,20.008Z" transform="translate(-106.009 -1.748)"/><path class="v" d="M147.926,11.054s8.352.184,10.863,2.69a10.759,10.759,0,0,1,2.874,5.8s1.3-4.5,0-8.032S153.588,5.76,151.175,5.76,145.857,9.936,147.926,11.054Z" transform="translate(-117.074 -0.543)"/><path class="k" d="M118.732,41.91s-3.685-3.156-5.287-1.486-1.769,6.221,6.5,8.45C119.942,48.874,119.106,42.278,118.732,41.91Z" transform="translate(-103.705 -13.732)"/><path class="w" d="M118.836,31.541S113.45,19.935,113.45,13.53c0-6.755,2.776-10.4,8.665-13.308,6.718-3.322,14.738-3.685,21.973-1.885,2.051.5,4.624,1.885,3.771,4.434a6.651,6.651,0,0,1-2.573,2.991,36.5,36.5,0,0,1-15.353,6.632c-2.395.424-5.373-.08-7.621.78C117.835,14.911,118.651,27.464,118.836,31.541Z" transform="translate(-104.042 2.735)"/><path class="x" d="M156.678,38.715c-.068,1.228-.614,2.248-1.259,2.217s-1.081-1.093-1.013-2.321.614-2.248,1.228-2.211S156.739,37.462,156.678,38.715Z" transform="translate(-119.844 -12.367)"/><path class="w" d="M151.47,25.065l.418,1.019a7.639,7.639,0,0,1,6.755.418C158.618,26.5,156.622,23.253,151.47,25.065Z" transform="translate(-118.714 -7.781)"/><path class="w" d="M137.8,32.933s-3.316-3.071-6.479-1.842c0,0,2.6-2.039,7.124.927Z" transform="translate(-110.938 -10.055)"/><path class="i" d="M173.352,231.134s-6.651-68.006-7.025-71.1S165,145,165,145v.061c.19,4.845.283,8.794.147,10.335-.522,5.38,6.608,79.072,6.608,79.072s13.087-1.554,17.391-1.756A87.831,87.831,0,0,0,173.352,231.134Z" transform="translate(-123.935 -54.276)"/><path class="j" d="M208.492,245.221l-13.51-68.331c-.676,4.379,10.341,61.717,11.183,67.907A12,12,0,0,1,208.492,245.221Z" transform="translate(-135.493 -66.582)"/><path class="k" d="M106.033,251.569s3.537,2.978,4.465,5,3.071,3.242,3.912,2.4,0-4.1-1.019-5.429-2.456-3.967-3.826-4.643C108.576,248.406,104.209,248.56,106.033,251.569Z" transform="translate(-101.01 -94.288)"/><path class="y" d="M98.13,250.847c0,1.523,3.986,7.412,5.674,8.782-.258-.491-3.494-4.372-4.065-7.449s.51-10.084.51-10.09C99.53,244.6,98.13,249.65,98.13,250.847Z" transform="translate(-98.13 -91.743)"/><path class="z" d="M139.47,57.188c1.4,2.284,3.071,4.409,5.938,4.649,3.175.27,4.8-1.726,5.723-4.188a98.588,98.588,0,0,0-11.662-.461Z" transform="translate(-114.083 -20.382)"/><path class="y" d="M136.924,67.768c-2.137-1.112-8.5-6.878-8.5-6.878a42.907,42.907,0,0,1-5.785-6.54c.319,1.124.614,2.106.854,2.843,1.363,4.207,12.994,11.883,13.989,12.006a15.752,15.752,0,0,0,3.525-.276A10.55,10.55,0,0,1,136.924,67.768Z" transform="translate(-107.588 -19.294)"/><path class="x" d="M137.469,37.444a5.023,5.023,0,0,0-2.7-1.075.172.172,0,0,0-.061.338,3.973,3.973,0,0,1,1.781.854,2.831,2.831,0,0,1,.436.467,3.966,3.966,0,0,1-.454.454,9.635,9.635,0,0,1-2.014,1.228.187.187,0,0,0,.129.35,8.4,8.4,0,0,0,2.211-1.142l.528-.393a4.741,4.741,0,0,0,.614-.577A2.653,2.653,0,0,0,137.469,37.444Z" transform="translate(-112.1 -12.355)"/><path class="w" d="M144.5,62.051c-3.586-.3-5.693-2.96-7.449-5.828a121.229,121.229,0,0,1,14.628.577C150.53,59.889,148.485,62.395,144.5,62.051Z" transform="translate(-113.149 -20.007)"/><path class="aa" d="M151,58.323a13.629,13.629,0,0,0,.676-1.523,121.23,121.23,0,0,0-14.628-.577c.356.583.731,1.155,1.13,1.707A36.981,36.981,0,0,1,151,58.323Z" transform="translate(-113.149 -20.007)"/><path class="ab" d="M148.523,60.592a15.082,15.082,0,0,0-7.013.884,7.5,7.5,0,0,0,4.71,2.235,6.043,6.043,0,0,0,5.693-2.456A24.467,24.467,0,0,0,148.523,60.592Z" transform="translate(-114.87 -21.667)"/><path class="i" d="M122.334,191.78l-2.954-37.27s-.24,37.939-.24,43.325-3.07,41.661-3.07,41.661h4.87Z" transform="translate(-105.053 -57.946)"/><path class="u" d="M149.37,47.9a3.739,3.739,0,0,0-.534-.111,7.725,7.725,0,0,0-2.751.19c-.215.049-.424.1-.614.16.141.19.289.368.448.547s.5.51.743.768.418.454.614.682a7.456,7.456,0,0,0,.614.571c.123-.233.246-.461.375-.676a.154.154,0,0,0,0-.043l.817-1.394c.129-.221.258-.442.381-.663Z" transform="translate(-116.398 -16.745)"/><path class="l" d="M175.717,100.267a13.781,13.781,0,0,0-6.141-10.833.325.325,0,0,0-.393.51c3.071,2.849,5.318,6.288,5.49,10.593a13.676,13.676,0,0,1-1.093,5.852c-.792,1.842-2.2,3.156-3.218,4.845a.375.375,0,0,0,.51.51c1.732-.952,2.948-3.261,3.685-5.017A14.481,14.481,0,0,0,175.717,100.267Z" transform="translate(-125.514 -32.817)"/><path class="ac" d="M173.321,124.54c-.393-2.284-3.218-4.44-5.527-3.525a4.336,4.336,0,0,0-3.488,3.838,4.544,4.544,0,1,0,9-.313Z" transform="translate(-123.659 -44.937)"/><path class="i" d="M171.6,123.387c-.35-2.033-2.862-3.955-4.913-3.138a3.869,3.869,0,0,0-3.107,3.414,4.047,4.047,0,1,0,8.014-.276Z" transform="translate(-123.378 -44.65)"/><path class="ac" d="M170.134,120.46a2.131,2.131,0,0,0-.676.16,3.433,3.433,0,0,0-2.763,3.028,3.685,3.685,0,0,0,3.986,3.918,3.625,3.625,0,0,0,.448-.092,4.145,4.145,0,0,0,1.676-3.93,4.366,4.366,0,0,0-2.671-3.083Z" transform="translate(-124.586 -44.806)"/><path class="h" d="M172.9,122.866c-.577-3.316-5.9-3.175-6.215.215a3.138,3.138,0,1,0,6.215-.215Z" transform="translate(-124.581 -44.805)"/><path class="ad" d="M171.775,125.351a2,2,0,0,1-2.155-2.241,1.957,1.957,0,0,1,3.752-.123,1.984,1.984,0,0,1-1.6,2.364Z" transform="translate(-125.712 -45.263)"/><path class="ae" d="M167.149,179.18l43.6-40.463-17.533-3.347L155.42,174.777Z" transform="translate(-120.238 -52.23)"/><path class="l" d="M168.106,180.643l42.791-39.72-17.3-1.762-35.7,37.651Z" transform="translate(-121.195 -53.692)"/><path class="l" d="M131.315,89.63c-3.992.258-7.707,4.489-9.144,7.922a13.989,13.989,0,0,0,.983,12.638c.276.424,1.013,0,.78-.436-1.916-3.826-2.536-8.014-.786-12.055a13.191,13.191,0,0,1,3.525-4.735c1.48-1.228,3.212-1.842,4.839-2.843C131.763,89.968,131.561,89.618,131.315,89.63Z" transform="translate(-106.997 -32.908)"/><path class="ad" d="M137.63,143.152a98.329,98.329,0,0,0-3.187-12.792c-.952-2.745-2.223-5.6-4.557-7.443a7.844,7.844,0,0,0-7.191-1.443c-2.217.405-3.568,2.684-3.838,4.913-.442,3.685.952,7.781,2.174,11.2.614,1.775,1.357,3.519,2.106,5.244a26.405,26.405,0,0,0,2.53,5.091c1.431,1.959,4.3,3.464,6.5,1.769.442-.338.061-1.062-.448-.768-3.156,1.842-5.416-1.492-6.577-3.992s-2.327-5.22-3.273-7.91c-1.148-3.249-2.6-6.853-2.272-10.391.442-4.858,6.141-5.662,9.623-3.021q.221.166.424.35a15.081,15.081,0,0,1,3.807,6.442,73.7,73.7,0,0,1,2.254,8.186c.442,2,3.009,9.654-.5,9.764a.476.476,0,0,0,0,.952C138.5,149.183,138.079,145.424,137.63,143.152Z" transform="translate(-106.096 -45.059)"/><path class="l" d="M135.4,131.794c-.866-5.294-5.613-12.479-11.883-11.349-7.148,1.29-5.435,10.219-3.685,14.917.332.866,1.719.51,1.412-.393-1.326-3.881-3.562-13.074,3.464-12.81,5.072.19,8.278,5.582,8.96,10.1C133.86,133.385,135.58,132.918,135.4,131.794Z" transform="translate(-105.912 -44.754)"/><path class="af" d="M140.48,165.721a.915.915,0,0,0-.927-.246c-.547.215-1.112.387-1.308,1.007a.737.737,0,0,0,.332.817,1.769,1.769,0,0,0,1.486,0,.952.952,0,0,0,.418-1.584Z" transform="translate(-113.601 -62.162)"/><path class="af" d="M145.343,165.045a1.345,1.345,0,0,0-1.062-.295.964.964,0,1,0,.252,1.9C145.184,166.494,146,165.7,145.343,165.045Z" transform="translate(-115.572 -61.891)"/><path class="k" d="M197.459,188.652c.927-3.328,1.554-6.7,2.34-10.059a11.816,11.816,0,0,0-1.842-.614,17.483,17.483,0,0,0,3.3-4.458c.614-1.228,1.394-3.23.283-4.409-1.228-1.326-3.414.141-4.532.94a11.5,11.5,0,0,0-1.941,1.707,16.9,16.9,0,0,0-2.622-2.72,10.865,10.865,0,0,0-1.112-.847,11.056,11.056,0,0,0-1.228.491c-3.574,1.664-6.755,5.122-8.757,8.628-.172.3-.338.614-.491.9.147.4.307.8.467,1.191a10.313,10.313,0,0,0,3.568,4.87c1.425.94,4.593.473,6.264.387a18.994,18.994,0,0,0,5.889,5.527C197.171,189.671,197.318,189.162,197.459,188.652Z" transform="translate(-130.055 -63.225)"/><path class="m" d="M186.64,181.523a6.374,6.374,0,0,0,3.507,5.558c1.179,0,2.389-.147,3.224-.19a18.994,18.994,0,0,0,5.889,5.527c.141-.51.289-1.019.43-1.529.927-3.328,1.554-6.7,2.34-10.059l-1.842-.614s-1.24-4.372-2.886-6.215C197.3,174,191.774,181.289,186.64,181.523Z" transform="translate(-132.286 -65.467)"/><path class="y" d="M199.256,174.151a28.428,28.428,0,0,1-3.4,3.15,44.1,44.1,0,0,0-3.457,3.034c-.068.061,0,.147.092.117a10.581,10.581,0,0,0,3.961-2.555,27.96,27.96,0,0,0,2.966-3.623.1.1,0,0,0-.166-.123Z" transform="translate(-134.499 -65.513)"/><path class="y" d="M188.6,185.377a16.163,16.163,0,0,0-2.364.614c-.111.049-.055.246.061.227a16.044,16.044,0,0,0,2.364-.614.118.118,0,1,0-.061-.227Z" transform="translate(-132.105 -69.856)"/><path class="m" d="M208.735,168.84a.613.613,0,0,1,.049.086c.712,1.412.2,2.856-.614,4.133a22.506,22.506,0,0,1-5.625,5.662c-.952.7-.792,2.6.669,2.456a11.809,11.809,0,0,0,4.458-1.228c.08-.375.16-.743.246-1.112a11.816,11.816,0,0,0-1.842-.614,17.483,17.483,0,0,0,3.3-4.458c.614-1.228,1.394-3.23.282-4.409A1.609,1.609,0,0,0,208.735,168.84Z" transform="translate(-138.193 -63.476)"/><path class="h" d="M295.44,156.682c1.48-4.3,3.07-8.6,4.593-12.9.037-.111.08-.221.117-.338l.54.166q8.6,2.6,17.164,5.244l1.443.436c-.227-1.879-.424-3.752-.614-5.631-1.075-11.785-1.062-36.846-1.044-36.963,6.319,2.819,17.158,12.012,21.4,39.573.792,5.128.123,15.819.123,15.819l-12.319,7.689s-7.369-2.162-10.851-3.562c-6.755-2.708-13.437-5.49-20.087-8.425l-.737-.332C295.274,157.185,295.354,156.934,295.44,156.682Z" transform="translate(-174.167 -39.496)"/><path class="l" d="M279.107,382.5a7.553,7.553,0,0,0-1.492,2.72c-.454,1.578,1.308,3.924,3.519,4.243s4.372.27,5.68-2.26,3.261-8.659,1.541-9.6S279.107,382.5,279.107,382.5Z" transform="translate(-167.365 -143.994)"/><path class="l" d="M288.81,393.115a16.187,16.187,0,0,0-2.456,5.9c-.54,3.2,2.843,4.913,3.685,5.183s5.908,1.038,8.254-.719,2.684-8.266,1.64-10.36S288.81,393.115,288.81,393.115Z" transform="translate(-170.743 -149.664)"/><path class="ag" d="M288.908,393.67h-.1a16.187,16.187,0,0,0-2.456,5.9c-.54,3.2,2.843,4.913,3.685,5.183a7.733,7.733,0,0,0,1.2.233c-1.474-.94-3.746-2.493-3.771-4.336a28.769,28.769,0,0,1,.9-5.6A3.132,3.132,0,0,0,288.908,393.67Z" transform="translate(-170.743 -150.237)"/><path class="k" d="M268.55,281.441s5.14,25.467,6.853,31.061,3.8,20.665,3.881,22.378-3.967,10.372-3.967,11.1,1.812,2.3,4.962,1.9c2.794-.362,2.616-1.173,2.616-1.173s2.057-7.111,2.837-8.6-.129-21.979-.94-24.509a8.141,8.141,0,0,1-.614-3.488l1.842-29.029S271.706,278.991,268.55,281.441Z" transform="translate(-163.895 -106.468)"/><path class="u" d="M293.354,370.467c-.246-.172-.768-1.873-.817-1.578a33.494,33.494,0,0,1-4.858,13.173c2.776-.362,2.6-1.167,2.6-1.167s2.057-7.111,2.837-8.6A6.633,6.633,0,0,0,293.354,370.467Z" transform="translate(-171.277 -140.661)"/><path class="u" d="M269.109,284.72c.111.522.227,1.105.362,1.744v.031c1.922,1.578,6.448,5.238,9.678,7.369,2.456,1.591,4.993,3.4,5.828,4h0l.9-13.879c-1.425-.24-4.741-.835-7.025-1.462l-9.611-.921a3.072,3.072,0,0,0-.688.375s.2.995.528,2.61Z" transform="translate(-163.895 -106.989)"/><path class="u" d="M292.842,319.511h0a3.142,3.142,0,0,1,0-.614l.964-15.046L291,303.09S291.983,317.847,292.842,319.511Z" transform="translate(-172.558 -115.282)"/><path class="u" d="M293.439,330.721c-.817-2.524-.614-2.886-.614-2.886l.061-2.407-.688-.768s-1.056,4.8-1.228,6.141,1.069.479,1.941,2.886.927,20.879.927,20.879c.35-.1.614-.614.811-1.412C294.857,347.5,294.114,332.852,293.439,330.721Z" transform="translate(-172.54 -123.606)"/><path class="n" d="M288.874,296.974c-.3-3.071-.983-6.2-1.468-9.175q-1.075-6.694-2.358-13.363c-.24-1.228-.5-2.456-.755-3.721a441.624,441.624,0,0,0,.5-65.248l-.111-1.566-.854-.037c-1.3-.061-2.6-.147-3.906-.295-3.371-.381-6.718-.927-10.053-1.566l-.786-.154c-.092.344-.19.688-.282,1.032-5.251,20.02-4.735,42.115-.276,62.221a169.435,169.435,0,0,1,4.022,35.047c0,.731,7.541.454,8.272.375a25.429,25.429,0,0,0,8.137-2.364A10.651,10.651,0,0,0,288.874,296.974Z" transform="translate(-162.535 -76.214)"/><path class="p" d="M289.552,300.518a27.818,27.818,0,0,0,5.054-1.842,11.119,11.119,0,0,0-.092-1.185c-.3-3.07-.983-6.2-1.468-9.175q-1.075-6.694-2.358-13.363c-.24-1.228-.5-2.456-.755-3.721a441.62,441.62,0,0,0,.5-65.248l-.111-1.566-.854-.037c-1.3-.061-2.6-.147-3.906-.295-1.984-.221-3.961-.51-5.926-.835C287.8,234.858,285.953,268.068,289.552,300.518Z" transform="translate(-168.174 -76.754)"/><path class="k" d="M297.534,282.829c-.178.282-1.339,16.421-.983,17.256s-3.163,37.1-3.617,40.721-3.341,10.667-3.519,11.668,2.813,3.685,7.136,2.782,3.961-1.486,4.415-2.6-.362-12.245,0-13.08,8.659-32.547,9.291-37.006,3.156-20.413,3.156-20.413Z" transform="translate(-171.944 -107.206)"/><path class="u" d="M317.59,285.724a27.479,27.479,0,0,0-6.909-3.034l-4.3.178a21.457,21.457,0,0,0-4.606,5.287c-.068.878-.135,1.842-.2,2.77,2.456-.092,11.551-.547,15.543-2.192C317.289,287.64,317.448,286.614,317.59,285.724Z" transform="translate(-176.641 -107.41)"/><path class="u" d="M323.075,290.48c-1.228.454-2.542.976-2.542.976s-.915,18.147-4.022,32.081c2.014-7.91,3.918-15.7,4.207-17.735C321.11,302.977,322.276,295.552,323.075,290.48Z" transform="translate(-182.402 -110.416)"/><path class="ag" d="M279.107,385.578a7.553,7.553,0,0,0-1.492,2.72c-.454,1.578,1.308,3.924,3.519,4.243h.049a2.669,2.669,0,0,0-.989-2.948,4.157,4.157,0,0,1-1.406-3.015,4.582,4.582,0,0,0,.442-1.1Z" transform="translate(-167.365 -147.077)"/><path class="n" d="M301.587,307.91c1.026.252,2.076.461,3.138.663,6.988-25.651,12.982-51.806,13.062-78.513A155.853,155.853,0,0,0,316.461,209c-.031-.227-.068-.461-.1-.694l-.338-.049c-2.352-.3-4.71-.534-7.068-.682a92.884,92.884,0,0,0-14.671.08H293.9v.614c-.123,25.964-.141,51.91-.774,77.868q-.24,9.641-.571,19.289C295.575,306.141,298.578,307.185,301.587,307.91Z" transform="translate(-173.16 -78.325)"/><path class="o" d="M293.92,207.783v.614c-.123,25.964-.141,51.91-.774,77.868q-.227,9.291-.547,18.589,3.206-22.974,4.434-46.162.706-13.836.688-27.7,0-7.234-.221-14.462c-.086-2.917-.117-5.969-.418-8.947-.933.049-1.842.111-2.788.2Z" transform="translate(-173.176 -78.425)"/><path class="ah" d="M324.649,194.693a7.669,7.669,0,0,0-2.518-.583l-.332,1.775s14.186,28.4,16.765,38.406C335.378,221.947,328.285,196.5,324.649,194.693Z" transform="translate(-184.444 -73.227)"/><path class="ai" d="M321.8,194.422c2.3-.559,3.163-1.124,3.181-1.934.037-1.5,0-2.168,0-2.168s-1.155,0-3,.037a10.077,10.077,0,0,1-.178,4.065Z" transform="translate(-184.444 -71.765)"/><path class="r" d="M257,192.124a88.94,88.94,0,0,0,56.5-.381c-2.659-8.782-5.877-21.015-6.479-23.047-2.3-7.719-4.434-16.175-2.616-24.208,1.333-5.865,4.673-11.054,5.846-17.017.995-5.054-6.1-21.659-8.6-22.556l-24.122-2.045s-7.615,8.6-10.409,12.687a24.186,24.186,0,0,0-2.929,18.951c1.437,5.122,2.88,10.323,3.071,15.666.2,5-1.3,9.365-2.5,14.124C262.373,173.627,259.88,182.943,257,192.124Z" transform="translate(-159.438 -38.018)"/><path class="p" d="M318.916,173.521c-.049-.313-.1-.614-.166-.933H318.3a24.884,24.884,0,0,1-6.718-.547,27.438,27.438,0,0,1-4.489-1.425c-.332-.135-.657-.283-.983-.436s-.663-.3-.989-.467a22.906,22.906,0,0,1-2.616-1.6l-.768-.54a8.275,8.275,0,0,1-.614.614,15.287,15.287,0,0,1-1.228,1.1l-.172.147-.135.1a27.273,27.273,0,0,1-5.287,3.31c-.246.123-.485.24-.737.35.289.061.577.111.872.154a17.674,17.674,0,0,0,6.638-.283c.583-.135,1.185-.307,1.793-.5a26.707,26.707,0,0,0,15.684,5.4h.577v-.835a22.391,22.391,0,0,0-.209-3.6Z" transform="translate(-173.546 -62.985)"/><path class="s" d="M280.343,102.843s-.952,1.081-2.3,2.653a62.654,62.654,0,0,1-1.148,6.645c-.927,4.078-2.18,8.088-3.328,12.11-2.223,7.8-4,15.795-2.935,23.95.614,4.729,1.922,9.457,1.228,14.253-.614,4.1-2.364,7.946-3.826,11.785-2.327,6.1-3.949,12.712-3.531,19.258q2.653.719,5.337,1.228a49.5,49.5,0,0,1,.362-9.893,61.552,61.552,0,0,1,3.629-12.282,39.994,39.994,0,0,0,2.966-11.564c.393-6.043-1.431-11.957-2.278-17.852a56.093,56.093,0,0,1,.927-18.521c1.449-7.5,3.715-14.278,4.913-21.813" transform="translate(-162.306 -37.991)"/><path class="aj" d="M296.093,25.226s-9.9,3.574-12.423,12.012.3,12.988,4.452,14.616S302.056,33.676,300.453,29.4,299.674,24.3,296.093,25.226Z" transform="translate(-169.361 -7.924)"/><path class="k" d="M297.286,88.63a37.038,37.038,0,0,1-.356,5.957s-5.238,1.621-6.681,2.647,8.284,13.277,10.1,13.449c3.685.344,14.02-11.4,14.02-11.4s-6.976-2.647-7.94-3.488.178-6,.178-6S299.251,87.365,297.286,88.63Z" transform="translate(-172.212 -32.382)"/><path class="ak" d="M290.25,101.207c-.221.16-.178.614.068,1.2l6.614-3.844S291.693,100.181,290.25,101.207Z" transform="translate(-172.213 -36.355)"/><path class="u" d="M301.765,88.76v1.971a14.226,14.226,0,0,0,1.91,2.119,6.064,6.064,0,0,0,4.477,1.357,4.624,4.624,0,0,0,.215,1.621c.479,1.142,3.58,3.009,4.329,3.341l4.532,1.965c1-1.069,1.634-1.787,1.634-1.787h0s-1.842-.7-3.752-1.486l-1.443-.614-.289-.123a14.009,14.009,0,0,1-2.456-1.265h0a.731.731,0,0,1-.141-.184v-.055a1.538,1.538,0,0,1-.1-.252h0a2.451,2.451,0,0,1-.061-.332v-.08a1.422,1.422,0,0,0-.031-.356h0v-.43a.469.469,0,0,0,0-.092v-.4a.25.25,0,0,1,0-.068v-.454a1,1,0,0,0,0-.135l.037-.338v-.147a2.753,2.753,0,0,1,.049-.393.928.928,0,0,1,.031-.233,1.437,1.437,0,0,0,0-.16c.129-.835.264-1.517.313-1.756V89.9a32.075,32.075,0,0,0-7.369-1.523,6.879,6.879,0,0,0-.97.049,4.061,4.061,0,0,0-.534.117,2.033,2.033,0,0,0-.436.2Z" transform="translate(-176.691 -32.425)"/><path class="k" d="M289.75,51.2s1.228,9.869,1.928,11.551,6.258,8.063,7.94,8.137,4.692.54,5.294,0,7.216-6.2,8.18-7.885,2.168-8.9,1.928-10.827S313.694,35.69,301.185,35.69C295.645,35.678,290,43.25,289.75,51.2Z" transform="translate(-172.076 -12.093)"/><path class="aj" d="M318.885,54.964s10.593-4.765,11.5-12.03-.387-15.353-6.755-20.3S308.71,17.1,305.068,21.188,304,33.82,309.637,38.334s8.812,6.3,10.612,6.982A68.523,68.523,0,0,1,318.885,54.964Z" transform="translate(-177.335 -5.452)"/><path class="aj" d="M298.367,37.036s-6.688,7.836-7.523,10.108a39.24,39.24,0,0,0-1.437,6.405,6.755,6.755,0,0,1-.909-6.86c1.548-4.243,5.011-10.642,7.369-11.232s3.021-.227,3.021-.227Z" transform="translate(-171.395 -11.874)"/><path class="al" d="M340.145,44.77c.9-7.265-.387-15.353-6.755-20.3a20.119,20.119,0,0,0-1.842-1.228c5.373,6.786,7.443,14.8,6.362,20.48s-6.319,7.228-7.805,8.677a3.641,3.641,0,0,0-.774,1.124,31.594,31.594,0,0,1-.651,3.279S339.243,52.035,340.145,44.77Z" transform="translate(-187.099 -7.289)"/><path class="am" d="M314,64.066l.252.657s3.3-.915,5.036.688C319.3,65.411,318.053,63.353,314,64.066Z" transform="translate(-181.434 -22.986)"/><path class="am" d="M303.273,57.616,303.69,57s-3.335-1.228-5.41.27C298.28,57.285,301.228,56.382,303.273,57.616Z" transform="translate(-175.367 -20.135)"/><path class="k" d="M329.824,67.318s1.431-3.629,3.642-2.856-.031,5.152-4.606,6.368Z" transform="translate(-187.168 -23.155)"/><path class="aj" d="M328.93,61.16s-.51,6.5.135,7.369c0,0,1.6-5.054,1.376-6.454S329.329,60.509,328.93,61.16Z" transform="translate(-187.121 -21.781)"/><path class="an" d="M305.453,25.68c.172-5.183,5.416-6.988,5.865-7.13a8.891,8.891,0,0,0-6.239,2.665c-3.642,4.1-1.069,12.632,4.569,17.146a77.548,77.548,0,0,0,7.013,5.1C309.444,37.249,305.274,31.108,305.453,25.68Z" transform="translate(-177.339 -5.479)"/><path class="an" d="M295.843,27.509l1.228-2.254.055-.215c-.307.061-.651.141-1.062.246,0,0-9.9,3.574-12.423,12-1.13,3.764-1.185,6.755-.534,9.064a67.592,67.592,0,0,1,1.437-7.1C286.453,31.506,295.843,27.509,295.843,27.509Z" transform="translate(-169.35 -7.983)"/><path class="y" d="M291.06,70.54a37.041,37.041,0,0,0,1.124,5.656c.719,1.683,6.258,8.063,7.94,8.125h.577c-1.578-.51-4.434-4.514-6.313-6.909A27.565,27.565,0,0,1,291.06,70.54Z" transform="translate(-172.581 -25.542)"/><path class="am" d="M318.389,68.4a5.711,5.711,0,0,0-2.217.614,7.02,7.02,0,0,0-.958.54,1.935,1.935,0,0,0-.614.614c.246.1.534.154.792.233a1.638,1.638,0,0,1,.16.055,3.224,3.224,0,0,1,1.29,1c.221.282.712,0,.5-.289a4.182,4.182,0,0,0-1.333-1.271h0a2.458,2.458,0,0,1,.387-.289,9.107,9.107,0,0,1,2.045-.841A.188.188,0,0,0,318.389,68.4Z" transform="translate(-181.665 -24.716)"/><path class="am" d="M303.07,64.885c0,1.32-.467,2.4-1.038,2.4S301,66.205,301,64.885s.461-2.395,1.032-2.395S303.07,63.559,303.07,64.885Z" transform="translate(-176.417 -22.435)"/><path class="u" d="M311.368,79.613a6.714,6.714,0,0,1-8.131.718c-.086-.061-.2.08-.117.154,2.653,2.34,6.368,2.291,8.524-.657C311.774,79.656,311.51,79.491,311.368,79.613Z" transform="translate(-177.224 -29.027)"/><path class="u" d="M316.684,79.635a.074.074,0,0,0-.1.1c.184.411.442.8.645,1.228a.166.166,0,1,0,.307-.129,1.971,1.971,0,0,0-.854-1.2Z" transform="translate(-182.429 -29.049)"/><path class="u" d="M308.509,74.687a5.275,5.275,0,0,0-2.34-.117,1.915,1.915,0,0,0-.479.1,2.2,2.2,0,0,0,.178.362,3.685,3.685,0,0,0,1.062,1.1,4.518,4.518,0,0,0,.436.258c.184-.141.362-.295.54-.442s.479-.5.706-.706.313-.2.467-.356a4.866,4.866,0,0,0-.571-.2Z" transform="translate(-178.227 -27.066)"/><path class="h" d="M260.535,140.527c-.1,5.607.614,11.183.712,16.783.1,5.742-2.653,10.679-3.986,16.053a95.276,95.276,0,0,0-2.585,22.765c0,1.339-.835,11.668.614,12.086a45.4,45.4,0,0,1-11.8-5.459c-.995-.614-9.144-6.663-8.966-7.541,1.984-9.893,10.01-17.041,15.469-25.068a37.573,37.573,0,0,0,5.441-13.3c1.388-5.883,1.228-11.723,1.333-17.686.16-7.621-.319-15.635,1.382-23.078,3.156-13.787,11.668-14.818,12.454-14.7a140.4,140.4,0,0,0-4.575,13.332c-2.346,7.621-4.692,15.512-5.367,23.489Q260.566,139.367,260.535,140.527Z" transform="translate(-150.765 -37.441)"/><path class="h" d="M321.239,104.29c2.616,7.818,1.842,16.876.442,25a420.462,420.462,0,0,0-5.957,79.674c5.748-1.763,21.647-4.575,21.647-4.575a1.971,1.971,0,0,1,.031-.424c.54-9.212-1.492-17.3-3.55-26.118-1.462-6.27-3.224-13.67-2.684-20.143.516-6.141,2.106-12.442,3.5-18.472,1.32-5.711,2.456-11.6,1.67-17.416C335.333,114.361,329.37,105.076,321.239,104.29Z" transform="translate(-182.065 -38.566)"/><path class="i" d="M338.178,159.9c-.43-8.493-.909-16.986-1.492-25.467-.1-1.455-.215-2.9-.319-4.36-.264,1.271-.522,2.542-.786,3.807q-1.05,5.128-2.045,10.262c-.737,3.887-2.02,8.174-2.53,12.282-.055.461-.1.915-.135,1.363.485.289.983.577,1.48.86a42.482,42.482,0,0,0,4.336,2.155c.522.227,1.044.424,1.566.614Z" transform="translate(-187.944 -48.514)"/><path class="ae" d="M319.212,128.657c0-.276.049-.553.068-.829l-.381-.055a130.93,130.93,0,0,0-17.809-1.056,152.565,152.565,0,0,0-15.789.743l-.614.061-.037.614c-.4,7.081-.461,14.2-.547,21.266q-.08,6.491-.049,12.994c0,2.217.043,4.428.074,6.638v2.714l.694.209a99.608,99.608,0,0,0,13.633,3.028,103.377,103.377,0,0,0,10.341,1.032l2.653.135h.749c.049-.252.1-.5.16-.761.436-2.1.854-4.213,1.271-6.307q1.5-7.535,2.665-15.144Q318.217,141.381,319.212,128.657Z" transform="translate(-169.875 -47.218)"/><path class="l" d="M309.312,177.313l2.653.135h.749c.049-.252.1-.5.16-.761.436-2.1.854-4.213,1.271-6.307q1.5-7.535,2.665-15.144c1.148-7.5,2.02-15.039,2.677-22.593-7.523-1.621-32.824-2.573-32.824-2.573-.528,5.373-1.155,36.521-1.283,43.128h0a99.611,99.611,0,0,0,13.633,3.028A103.37,103.37,0,0,0,309.312,177.313Z" transform="translate(-170.389 -48.514)"/><path class="k" d="M323.416,163.407a28.2,28.2,0,0,0,.24-5.38c0-.209-.031-.418-.043-.614s-1.449.172-1.634.1c-.565-.24-.516-1.148-.792-1.609-.424-.731-1.412-.841-2.26-.872a9.47,9.47,0,0,0-2.321.1c-1.842.368-2.868,1.775-3.728,3.328-1.91,3.457-4.956,3.224-8.389,4a40.972,40.972,0,0,0-4.3,1.333c-.442.154-.884.307-1.32.473l.092.4c.178.755.405,1.474.461,1.8.282,1.5.565,3.009.817,4.52.068.405.129.811.19,1.228a3.215,3.215,0,0,0,.068.479q.835-.239,1.677-.5c2.07-.614,4.121-1.345,6.141-2.149a15.862,15.862,0,0,1,6.356-1.388c1.056.037,2.02.393,3.07.516a8.106,8.106,0,0,0,3.685-.491,7.985,7.985,0,0,0,.964-.436c.123-.332.233-.676.332-1.019a29.69,29.69,0,0,0,.694-3.814Z" transform="translate(-175.595 -58.135)"/><path class="y" d="M312.878,158.795c-1.91,3.457-4.956,3.224-8.389,4a40.968,40.968,0,0,0-4.3,1.333c-.442.154-.884.307-1.32.473l.092.4c.111.467.24.915.332,1.265,3.341.547,7.689-1.124,10.495-2.456a9.61,9.61,0,0,0,3.912-3.071c.915-1.283,1.056-3.353,1.732-4.845a6.9,6.9,0,0,0-2.555,2.9Z" transform="translate(-175.595 -58.478)"/><path class="u" d="M328.912,159.208a1.228,1.228,0,0,1,.688-.282,8.788,8.788,0,0,1,3.507.258c.995.54-.184,5.03-.387,6.172a4.962,4.962,0,0,1-.614,1.971c-.712,1.069-2.776,1.062-3.156-.356a3.617,3.617,0,0,1,.117-1.615,9.421,9.421,0,0,0-.252-4.618,1.769,1.769,0,0,1-.1-1.228A.749.749,0,0,1,328.912,159.208Z" transform="translate(-187.085 -59.628)"/><path class="h" d="M288.33,155.507c-1.1-4.428-2.309-8.843-3.451-13.258l-.092-.344-.553.117q-8.782,1.842-17.551,3.734l-1.48.307q.614-2.77,1.087-5.527c2.094-11.668,4.256-36.625,4.25-36.736-6.565,2.241-18.184,10.563-24.761,37.5-1.228,5.042-.7,20.83-.7,20.83l10.814,3.648s7.51-1.511,11.121-2.6c6.958-2.113,13.86-4.3,20.744-6.651l.761-.27C288.453,156,288.4,155.735,288.33,155.507Z" transform="translate(-154.794 -38.377)"/><path class="j" d="M290.764,181.622a10.329,10.329,0,0,0-3.273-8.37,11.259,11.259,0,0,0-6.043-2.512l-3.82.817-1.48.307-2.819.706c4.121,3.734,14.6,2.248,11.564,10.163-.553,1.443.614,2.929,1.916,3.378l.233.074q4.661-1.474,9.3-3.034Q293.528,182.482,290.764,181.622Z" transform="translate(-165.739 -64.209)"/><path class="i" d="M268.952,126.321c.092-.356.19-.718.295-1.081-4.962,6.331-5.527,31.4-5.527,31.4,1.148-.356,2.407-.725,3.685-1.081,0-1.443.031-2.886.061-4.342C267.632,143.012,266.913,134.3,268.952,126.321Z" transform="translate(-162.031 -46.65)"/><path class="k" d="M272.537,155.045a10.974,10.974,0,0,1,1.9-4.821,2.579,2.579,0,0,1,1.719-1.062,8.366,8.366,0,0,1,1.584.295c2.456.344,3.034-2.929,4.207-4.409.559-.7,1.4-1.388,2.26-1.124a1.7,1.7,0,0,1,1.056,1.339,4.723,4.723,0,0,1-.117,1.781,28.54,28.54,0,0,0-.725,4.366,7.227,7.227,0,0,0,3.07,5.84,35.212,35.212,0,0,0,3.685,1.971c1.363.774,2.684,1.615,3.967,2.506.387.27.768.534,1.142.811-.061.123-.123.246-.19.362-.381.676-.786,1.308-.933,1.6-.676,1.376-1.351,2.751-2.008,4.139-.172.368-.338.743-.5,1.118l-.2.442c-.491-.3-.983-.614-1.48-.933-2.217-1.425-4.3-3.07-6.381-4.661a16.494,16.494,0,0,0-4.5-2.266,18.051,18.051,0,0,0-4.348-.792,4.3,4.3,0,0,1-1.369-.35C272.445,160.24,272.15,157.581,272.537,155.045Z" transform="translate(-165.376 -53.838)"/><path class="y" d="M302.941,163.217c.068-.117.129-.24.19-.362-.375-.276-.755-.54-1.142-.811-1.283-.89-2.6-1.732-3.967-2.506a35.2,35.2,0,0,1-3.685-1.971,7.227,7.227,0,0,1-3.071-5.84,28.533,28.533,0,0,1,.725-4.366,4.723,4.723,0,0,0,.117-1.781,1.99,1.99,0,0,0-.418-.89c-2.014,3.593-2.149,8.782-.092,12.012,2,3.132,6.958,6.03,11.306,6.583Z" transform="translate(-172.217 -54.156)"/><path class="h" d="M338.39,177.063l1.228,7.148L327.225,192.7s-7.369-2.155-10.851-3.562c-6.755-2.7-13.437-5.49-20.087-8.419l-.737-.338c.086-.252.166-.51.252-.761,1.48-4.3,3.071-8.6,4.594-12.9l.117-.338.54.166q8.6,2.6,17.164,5.244l1.443.436Z" transform="translate(-174.314 -62.53)"/><path class="t" d="M303.073,169.09l35,9.936-4.391,3.568L302.25,171.405Z" transform="translate(-176.9 -65.242)"/></g></g></g></svg>