<svg xmlns="http://www.w3.org/2000/svg" width="27" height="36" viewBox="0 0 27 36"><defs><style>.a{fill:#fff;}</style></defs><path class="a" d="M15.75,9.563V0H1.688A1.683,1.683,0,0,0,0,1.688V34.313A1.683,1.683,0,0,0,1.688,36H25.313A1.683,1.683,0,0,0,27,34.313V11.25H17.438A1.692,1.692,0,0,1,15.75,9.563Zm4.819,12.62.8.8a1.125,1.125,0,0,1,0,1.591l-2.1,2.1,2.114,2.114a1.125,1.125,0,0,1,0,1.591l-.8.8a1.125,1.125,0,0,1-1.591,0l-2.114-2.114L14.761,31.17a1.125,1.125,0,0,1-1.591,0l-.8-.8a1.125,1.125,0,0,1,0-1.591l2.114-2.114L10.318,22.5H9v3.375A1.125,1.125,0,0,1,7.875,27H6.75a1.125,1.125,0,0,1-1.125-1.125V14.625A1.125,1.125,0,0,1,6.75,13.5h5.625a4.486,4.486,0,0,1,2.147,8.432l2.353,2.353,2.1-2.1A1.125,1.125,0,0,1,20.569,22.182Zm-8.194-3.057H9v-2.25h3.375a1.125,1.125,0,0,1,0,2.25ZM27,8.571V9H18V0h.429a1.686,1.686,0,0,1,1.2.492l6.884,6.891A1.682,1.682,0,0,1,27,8.571Z"/></svg>